<?xml version="1.0" encoding="utf-8"?>
<!-- Generator: Adobe Illustrator 22.0.1, SVG Export Plug-In . SVG Version: 6.00 Build 0)  -->
<svg version="1.1" id="Layer_1" xmlns="http://www.w3.org/2000/svg" xmlns:xlink="http://www.w3.org/1999/xlink" x="0px" y="0px"
	 viewBox="0 0 1920 995" enable-background="new 0 0 1920 995" xml:space="preserve">
<polygon fill="#DCE8F2" points="0.5,125.4 0.5,377.5 1210,125.4 "/>
<linearGradient id="SVGID_1_" gradientUnits="userSpaceOnUse" x1="845.8641" y1="1144.0605" x2="1052.5078" y2="-27.8741">
	<stop  offset="0" style="stop-color:#FFFFFF"/>
	<stop  offset="0.3728" style="stop-color:#F6F9FC"/>
	<stop  offset="0.9891" style="stop-color:#DDE8F2"/>
	<stop  offset="1" style="stop-color:#DCE8F2"/>
</linearGradient>
<polygon fill="url(#SVGID_1_)" points="1190.9,125.8 1919.5,125 1919.5,631.7 0.5,995 0.5,361.8 "/>
<linearGradient id="SVGID_2_" gradientUnits="userSpaceOnUse" x1="759" y1="816.9722" x2="1920" y2="816.9722">
	<stop  offset="0.6244" style="stop-color:#DCE8F2;stop-opacity:0"/>
	<stop  offset="0.7077" style="stop-color:#E2EDF5;stop-opacity:0.1331"/>
	<stop  offset="1" style="stop-color:#F5FAFD;stop-opacity:0.6"/>
</linearGradient>
<polygon fill="url(#SVGID_2_)" points="1920,643.8 1920,871.8 1205.2,990.2 759,845.5 "/>
<linearGradient id="SVGID_3_" gradientUnits="userSpaceOnUse" x1="1105.9941" y1="595.772" x2="728.1971" y2="-58.5915">
	<stop  offset="0.3317" style="stop-color:#DCE8F2;stop-opacity:0.4"/>
	<stop  offset="0.3512" style="stop-color:#DCE8F2;stop-opacity:0.4265"/>
	<stop  offset="0.7724" style="stop-color:#D5E4EF"/>
</linearGradient>
<polygon fill="url(#SVGID_3_)" points="0,361.8 1191,125.8 1920,125.8 0,560 "/>
<linearGradient id="SVGID_4_" gradientUnits="userSpaceOnUse" x1="563.0732" y1="544.4821" x2="399.375" y2="260.9485">
	<stop  offset="0.3317" style="stop-color:#DCE8F2;stop-opacity:0.4"/>
	<stop  offset="0.3512" style="stop-color:#DCE8F2;stop-opacity:0.4265"/>
	<stop  offset="0.7724" style="stop-color:#D5E4EF"/>
</linearGradient>
<polygon fill="url(#SVGID_4_)" points="0,560 0,728.4 1065,254.7 0,491.5 "/>
<linearGradient id="SVGID_5_" gradientUnits="userSpaceOnUse" x1="1146" y1="580.7833" x2="1920" y2="580.7833">
	<stop  offset="0" style="stop-color:#D5E4EF;stop-opacity:0.8"/>
	<stop  offset="1" style="stop-color:#DCE8F2;stop-opacity:0.4"/>
</linearGradient>
<polygon fill="url(#SVGID_5_)" points="1920,389.9 1920,644.2 1146,771.7 "/>
<path fill="#DCE8F2" d="M0.5,127V28.7c0,0,506.5,118.3,1169.8,40.1c0,0,496.5-64.4,749.2,58.1H0.5z"/>
<path opacity="0.1" fill="#DCE8F2" d="M0.5,0c0,0,506.5,152.5,1169.8,51.7c0,0,496.5-82.9,749.2,74.9H0.5V0"/>
</svg>
