<?xml version="1.0" encoding="utf-8"?>
<!-- Generator: Adobe Illustrator 22.0.1, SVG Export Plug-In . SVG Version: 6.00 Build 0)  -->
<svg version="1.1" id="Layer_1" xmlns="http://www.w3.org/2000/svg" xmlns:xlink="http://www.w3.org/1999/xlink" x="0px" y="0px"
	 viewBox="0 0 1920 870" enable-background="new 0 0 1920 870" xml:space="preserve">
<linearGradient id="SVGID_1_" gradientUnits="userSpaceOnUse" x1="496.9007" y1="370.2463" x2="635.8909" y2="-148.4722">
	<stop  offset="0" style="stop-color:#DCE8F2"/>
	<stop  offset="0.7724" style="stop-color:#D8E4ED"/>
</linearGradient>
<polygon fill="url(#SVGID_1_)" points="0.5,0.4 0.5,237.2 1191.5,0.4 "/>
<linearGradient id="SVGID_2_" gradientUnits="userSpaceOnUse" x1="845.8491" y1="1019.146" x2="1052.5229" y2="-152.9596">
	<stop  offset="0" style="stop-color:#FFFFFF"/>
	<stop  offset="0.3728" style="stop-color:#F6F9FC"/>
	<stop  offset="0.9891" style="stop-color:#DDE8F2"/>
	<stop  offset="1" style="stop-color:#DCE8F2"/>
</linearGradient>
<polygon fill="url(#SVGID_2_)" points="1191,0.8 1920,0 1920,506.7 0,870 0,236.8 "/>
<linearGradient id="SVGID_3_" gradientUnits="userSpaceOnUse" x1="759" y1="691.9722" x2="1920" y2="691.9722">
	<stop  offset="0.6244" style="stop-color:#DCE8F2;stop-opacity:0"/>
	<stop  offset="0.7077" style="stop-color:#E2EDF5;stop-opacity:0.1331"/>
	<stop  offset="1" style="stop-color:#F5FAFD;stop-opacity:0.6"/>
</linearGradient>
<polygon fill="url(#SVGID_3_)" points="1920,518.8 1920,746.8 1205.2,865.2 759,720.5 "/>
<linearGradient id="SVGID_4_" gradientUnits="userSpaceOnUse" x1="1105.9941" y1="470.7721" x2="728.1971" y2="-183.5915">
	<stop  offset="0.3317" style="stop-color:#DCE8F2;stop-opacity:0.4"/>
	<stop  offset="0.3512" style="stop-color:#DCE8F2;stop-opacity:0.4265"/>
	<stop  offset="0.7724" style="stop-color:#D5E4EF"/>
</linearGradient>
<polygon fill="url(#SVGID_4_)" points="0,236.8 1191,0.8 1920,0.8 0,435 "/>
<linearGradient id="SVGID_5_" gradientUnits="userSpaceOnUse" x1="563.0732" y1="419.4821" x2="399.375" y2="135.9485">
	<stop  offset="0.3317" style="stop-color:#DCE8F2;stop-opacity:0.4"/>
	<stop  offset="0.3512" style="stop-color:#DCE8F2;stop-opacity:0.4265"/>
	<stop  offset="0.7724" style="stop-color:#D5E4EF"/>
</linearGradient>
<polygon fill="url(#SVGID_5_)" points="0,435 0,603.4 1065,129.7 0,366.5 "/>
<linearGradient id="SVGID_6_" gradientUnits="userSpaceOnUse" x1="1146" y1="455.7833" x2="1920" y2="455.7833">
	<stop  offset="0" style="stop-color:#D5E4EF;stop-opacity:0.8"/>
	<stop  offset="1" style="stop-color:#DCE8F2;stop-opacity:0.4"/>
</linearGradient>
<polygon fill="url(#SVGID_6_)" points="1920,264.9 1920,519.2 1146,646.7 "/>
</svg>
