<?xml version="1.0" encoding="utf-8"?>
<!-- Generator: Adobe Illustrator 22.0.1, SVG Export Plug-In . SVG Version: 6.00 Build 0)  -->
<svg version="1.1" id="Layer_1" xmlns="http://www.w3.org/2000/svg" xmlns:xlink="http://www.w3.org/1999/xlink" x="0px" y="0px"
	 viewBox="0 0 1920 457" style="enable-background:new 0 0 1920 457;" xml:space="preserve">
<style type="text/css">
	.st0{fill:#f3fbf8;}
	.st1{opacity:0.77;fill:#edf3f1;}
	.st2{opacity:0.61;fill:url(#SVGID_1_);}
	.st3{fill:url(#SVGID_2_);}
</style>
<path class="st0" d="M0,112.2c0,0,497-35.8,1059,132.9c543.5,163.1,861,0,861,0v212H0V112.2z"/>
<path class="st1" d="M0,165.9c0,0,346,194.1,866,82.1s811-59.2,1054,10.4V457H0V165.9z"/>
<linearGradient id="SVGID_1_" gradientUnits="userSpaceOnUse" x1="960" y1="457" x2="960" y2="136.0677">
	<stop  offset="0" style="stop-color:#f7fbfa"/>
	<stop  offset="1" style="stop-color:#eaf9f3"/>
</linearGradient>
<path class="st2" d="M0,136.1c0,4.5,20.3,14.3,25.4,17.6c23.3,15,49,29.1,76.3,42.3c84.7,41,186.9,73.5,300,91
	c95.6,14.8,198.1,19.5,297.5,13.3c49.7-3.1,98.8-8.9,145.5-17.9c47.8-9.2,87.3-23.5,131.5-36c25.8-7.3,52-14.1,78.7-20.5
	c68.5-16.5,139.7-30.2,213.1-40.2c179-24.5,372.5-25.5,543.7,13.5c19.1,4.3,37.7,9.1,55.9,14.3c6.9,2,52.5,13.1,52.5,16.6
	c0,0,0,226.9,0,226.9H0C0,457,0,136.2,0,136.1z"/>
<linearGradient id="SVGID_2_" gradientUnits="userSpaceOnUse" x1="1471.6991" y1="620.1682" x2="1342.7433" y2="265.865">
	<stop  offset="0" style="stop-color:#eaf9f3;stop-opacity:0.4"/>
	<stop  offset="1" style="stop-color:#f3fbf8"/>
</linearGradient>
<path class="st3" d="M855,457c0,0,408-250.3,1065-136.3V457H855z"/>
</svg>
