<?xml version="1.0" encoding="utf-8"?>
<!-- Generator: Adobe Illustrator 22.0.1, SVG Export Plug-In . SVG Version: 6.00 Build 0)  -->
<svg version="1.1" id="Layer_1" xmlns="http://www.w3.org/2000/svg" xmlns:xlink="http://www.w3.org/1999/xlink" x="0px" y="0px"
	 viewBox="0 0 1868.3 120.8" style="enable-background:new 0 0 1868.3 120.8;" xml:space="preserve">
<style type="text/css">
	.st0{fill:none;stroke:#FFFFFF;stroke-width:2;stroke-linecap:round;stroke-miterlimit:10;}
</style>
<g>
	<path class="st0" d="M115.9,66.1h-8.2c-2,0-3.6-1.4-3.6-3.2l0-9.7"/>
	<line class="st0" x1="114.6" y1="66.1" x2="160.8" y2="66.1"/>
	<line class="st0" x1="104" y1="58" x2="104" y2="8"/>
	<ellipse class="st0" cx="104" cy="4.3" rx="3.5" ry="3.8"/>
	<ellipse class="st0" cx="165" cy="66.3" rx="3.5" ry="3.8"/>
</g>
<g>
	<path class="st0" d="M172.4,26.8l8.2,0c2,0,3.6,1.4,3.6,3.2l0,9.7"/>
	<line class="st0" x1="173.7" y1="26.8" x2="77.7" y2="27"/>
	<line class="st0" x1="184.3" y1="34.8" x2="184.4" y2="84.8"/>
	<ellipse class="st0" cx="184.5" cy="88.6" rx="3.5" ry="3.8"/>
	<ellipse class="st0" cx="74.1" cy="26.8" rx="3.5" ry="3.8"/>
</g>
<g>
	<path class="st0" d="M220,41.8l-8.2,0c-2,0-3.6,1.4-3.6,3.2l0,9.7"/>
	<line class="st0" x1="218.8" y1="41.8" x2="314.7" y2="42"/>
	<line class="st0" x1="208.2" y1="49.8" x2="208" y2="99.8"/>
	<ellipse class="st0" cx="208" cy="103.6" rx="3.5" ry="3.8"/>
	<ellipse class="st0" cx="318.3" cy="41.8" rx="3.5" ry="3.8"/>
</g>
<g>
	<path class="st0" d="M263.6,77.1h-8.2c-2,0-3.6-1.4-3.6-3.2v-9.7"/>
	<line class="st0" x1="262.4" y1="77.1" x2="418.4" y2="77"/>
	<line class="st0" x1="251.7" y1="69" x2="251.7" y2="19"/>
	<ellipse class="st0" cx="251.7" cy="15.3" rx="3.5" ry="3.8"/>
	<ellipse class="st0" cx="422" cy="77.3" rx="3.5" ry="3.8"/>
</g>
<g>
	<path class="st0" d="M668.3,76.1h8.2c2,0,3.6-1.4,3.6-3.2v-9.7"/>
	<line class="st0" x1="669.5" y1="76.1" x2="623.4" y2="76.1"/>
	<line class="st0" x1="680.1" y1="68" x2="680.1" y2="18"/>
	<ellipse class="st0" cx="680.1" cy="14.3" rx="3.5" ry="3.8"/>
	<ellipse class="st0" cx="619.2" cy="76.3" rx="3.5" ry="3.8"/>
</g>
<g>
	<path class="st0" d="M564.1,51.8l8.2,0c2,0,3.6,1.4,3.6,3.2l0,9.7"/>
	<line class="st0" x1="565.4" y1="51.8" x2="469.4" y2="52"/>
	<line class="st0" x1="576" y1="59.8" x2="576.2" y2="109.8"/>
	<ellipse class="st0" cx="576.2" cy="113.6" rx="3.5" ry="3.8"/>
	<ellipse class="st0" cx="465.8" cy="51.8" rx="3.5" ry="3.8"/>
</g>
<g>
	<path class="st0" d="M520.6,87.1h8.2c2,0,3.6-1.4,3.6-3.2v-9.7"/>
	<line class="st0" x1="521.8" y1="87.1" x2="365.8" y2="87"/>
	<line class="st0" x1="532.4" y1="79" x2="532.4" y2="29"/>
	<ellipse class="st0" cx="532.4" cy="25.3" rx="3.5" ry="3.8"/>
	<ellipse class="st0" cx="362.2" cy="87.3" rx="3.5" ry="3.8"/>
</g>
<g>
	<path class="st0" d="M755,22.8l8.2,0c2,0,3.6,1.4,3.6,3.2l0,9.7"/>
	<line class="st0" x1="756.2" y1="22.8" x2="660.3" y2="23"/>
	<line class="st0" x1="766.9" y1="30.8" x2="767" y2="80.8"/>
	<ellipse class="st0" cx="767" cy="84.6" rx="3.5" ry="3.8"/>
	<ellipse class="st0" cx="656.7" cy="22.8" rx="3.5" ry="3.8"/>
</g>
<g>
	<path class="st0" d="M802.6,37.8l-8.2,0c-2,0-3.6,1.4-3.6,3.2l0,9.7"/>
	<line class="st0" x1="801.4" y1="37.8" x2="897.3" y2="38"/>
	<line class="st0" x1="790.7" y1="45.8" x2="790.6" y2="95.8"/>
	<ellipse class="st0" cx="790.6" cy="99.6" rx="3.5" ry="3.8"/>
	<ellipse class="st0" cx="900.9" cy="37.8" rx="3.5" ry="3.8"/>
</g>
<g>
	<path class="st0" d="M846.2,73.1H838c-2,0-3.6-1.4-3.6-3.2v-9.7"/>
	<line class="st0" x1="844.9" y1="73.1" x2="1001" y2="73"/>
	<line class="st0" x1="834.3" y1="65" x2="834.3" y2="15"/>
	<ellipse class="st0" cx="834.3" cy="11.3" rx="3.5" ry="3.8"/>
	<ellipse class="st0" cx="1004.6" cy="73.3" rx="3.5" ry="3.8"/>
</g>
<g>
	<path class="st0" d="M1250.9,72.1h8.2c2,0,3.6-1.4,3.6-3.2v-9.7"/>
	<line class="st0" x1="1252.1" y1="72.1" x2="1205.9" y2="72.1"/>
	<line class="st0" x1="1262.7" y1="64" x2="1262.7" y2="14"/>
	<ellipse class="st0" cx="1262.7" cy="10.3" rx="3.5" ry="3.8"/>
	<ellipse class="st0" cx="1201.8" cy="72.3" rx="3.5" ry="3.8"/>
</g>
<g>
	<path class="st0" d="M1194.3,32.8l-8.2,0c-2,0-3.6,1.4-3.6,3.2l0,9.7"/>
	<line class="st0" x1="1193.1" y1="32.8" x2="1289" y2="33"/>
	<line class="st0" x1="1182.4" y1="40.8" x2="1182.3" y2="90.8"/>
	<ellipse class="st0" cx="1182.3" cy="94.6" rx="3.5" ry="3.8"/>
	<ellipse class="st0" cx="1292.6" cy="32.8" rx="3.5" ry="3.8"/>
</g>
<g>
	<path class="st0" d="M1146.7,47.8l8.2,0c2,0,3.6,1.4,3.6,3.2l0,9.7"/>
	<line class="st0" x1="1147.9" y1="47.8" x2="1052" y2="48"/>
	<line class="st0" x1="1158.6" y1="55.8" x2="1158.7" y2="105.8"/>
	<ellipse class="st0" cx="1158.8" cy="109.6" rx="3.5" ry="3.8"/>
	<ellipse class="st0" cx="1048.4" cy="47.8" rx="3.5" ry="3.8"/>
</g>
<g>
	<path class="st0" d="M1103.1,83.1h8.2c2,0,3.6-1.4,3.6-3.2v-9.7"/>
	<line class="st0" x1="1104.4" y1="83.1" x2="948.3" y2="83"/>
	<line class="st0" x1="1115" y1="75" x2="1115" y2="25"/>
	<ellipse class="st0" cx="1115" cy="21.3" rx="3.5" ry="3.8"/>
	<ellipse class="st0" cx="944.7" cy="83.3" rx="3.5" ry="3.8"/>
</g>
<g>
	<path class="st0" d="M1301.2,44.8l-8.2,0c-2,0-3.6,1.4-3.6,3.2l0,9.7"/>
	<line class="st0" x1="1299.9" y1="44.8" x2="1395.9" y2="45"/>
	<line class="st0" x1="1289.3" y1="52.8" x2="1289.1" y2="102.8"/>
	<ellipse class="st0" cx="1289.1" cy="106.6" rx="3.5" ry="3.8"/>
	<ellipse class="st0" cx="1399.5" cy="44.8" rx="3.5" ry="3.8"/>
</g>
<g>
	<path class="st0" d="M1344.7,80.1h-8.2c-2,0-3.6-1.4-3.6-3.2v-9.7"/>
	<line class="st0" x1="1343.5" y1="80.1" x2="1499.5" y2="80"/>
	<line class="st0" x1="1332.9" y1="72" x2="1332.9" y2="22"/>
	<ellipse class="st0" cx="1332.9" cy="18.3" rx="3.5" ry="3.8"/>
	<ellipse class="st0" cx="1503.1" cy="80.3" rx="3.5" ry="3.8"/>
</g>
<g>
	<path class="st0" d="M1749.4,79.1h8.2c2,0,3.6-1.4,3.6-3.2v-9.7"/>
	<line class="st0" x1="1750.7" y1="79.1" x2="1704.5" y2="79.1"/>
	<line class="st0" x1="1761.3" y1="71" x2="1761.3" y2="21"/>
	<ellipse class="st0" cx="1761.3" cy="17.3" rx="3.5" ry="3.8"/>
	<ellipse class="st0" cx="1700.3" cy="79.3" rx="3.5" ry="3.8"/>
</g>
<g>
	<path class="st0" d="M1692.9,39.8l-8.2,0c-2,0-3.6,1.4-3.6,3.2l0,9.7"/>
	<line class="st0" x1="1691.6" y1="39.8" x2="1787.6" y2="40"/>
	<line class="st0" x1="1681" y1="47.8" x2="1680.9" y2="97.8"/>
	<ellipse class="st0" cx="1680.8" cy="101.6" rx="3.5" ry="3.8"/>
	<ellipse class="st0" cx="1791.2" cy="39.8" rx="3.5" ry="3.8"/>
</g>
<g>
	<path class="st0" d="M1645.3,54.8l8.2,0c2,0,3.6,1.4,3.6,3.2l0,9.7"/>
	<line class="st0" x1="1646.5" y1="54.8" x2="1550.6" y2="55"/>
	<line class="st0" x1="1657.1" y1="62.8" x2="1657.3" y2="112.8"/>
	<ellipse class="st0" cx="1657.3" cy="116.6" rx="3.5" ry="3.8"/>
	<ellipse class="st0" cx="1547" cy="54.8" rx="3.5" ry="3.8"/>
</g>
<g>
	<path class="st0" d="M1601.7,90.1h8.2c2,0,3.6-1.4,3.6-3.2v-9.7"/>
	<line class="st0" x1="1602.9" y1="90.1" x2="1446.9" y2="90"/>
	<line class="st0" x1="1613.6" y1="82" x2="1613.6" y2="32"/>
	<ellipse class="st0" cx="1613.6" cy="28.3" rx="3.5" ry="3.8"/>
	<ellipse class="st0" cx="1443.3" cy="90.3" rx="3.5" ry="3.8"/>
</g>
</svg>
