<?xml version="1.0" ?>
<svg enable-background="new 0 0 216.1565 173.3078" id="invision" version="1.1" viewBox="0 0 216.1565 173.3078" xml:space="preserve" xmlns="http://www.w3.org/2000/svg" xmlns:xlink="http://www.w3.org/1999/xlink">
	<g><path
		d="M203.09,134.2929c0,0-6.9335,15.8204-14.9335,18.6604c-8,2.8396-14.9065-3.246-1.6445-33.2616   c13.2656-30.0197,5.8045-55.9828-2.4844-64.096c-8.2932-8.1132-30.672-10.5468-43.1056-3.244   C128.4845,59.6525,120.1565,70,120.1565,70l4-21.7051l-48.7229,0.8108l-7.4608,26.7732h21.5508   c0,0-19.8944,58.9416-21.5508,60.3008c-1.6563,1.3596-15.8163,11.9452-21.8163,13.9336c-6,1.9924-13,3.6524-9.6837-9.328   c3.3164-12.9804,23.2108-92.4904,23.2108-92.4904H4.9648L0,74.256v1.6229h19.8948c0,0-15.7383,61.6604-16.5783,68.9611   c-0.8437,7.3045,0.84,22.3985,24.84,26.7733c24,4.3787,41.4727-18.66,41.4727-18.66l-3.3127,18.66h31.5   c0,0,16.34-63.6133,22.34-77.6133s26-26.2419,36-18.1211c10,8.1211,5.4883,21.094,1.3435,31.6408   C153.3556,118.0665,144.1565,146,152.1565,160s34.3555,20,49.2771,2.6917C212.1565,150.1133,216.1565,138,216.1565,138   L203.09,134.2929z"
		fill="#FF427A"/><circle cx="44.1565" cy="16" fill="#FF427A" r="16"/></g>
</svg>
