<?xml version="1.0" encoding="iso-8859-1"?>
<!-- Generator: Adobe Illustrator 16.0.0, SVG Export Plug-In . SVG Version: 6.00 Build 0)  -->
<!DOCTYPE svg PUBLIC "-//W3C//DTD SVG 1.1//EN" "http://www.w3.org/Graphics/SVG/1.1/DTD/svg11.dtd">
<svg version="1.1" id="Capa_1" xmlns="http://www.w3.org/2000/svg" xmlns:xlink="http://www.w3.org/1999/xlink" x="0px" y="0px"
	 width="48.438px" height="48.438px" viewBox="0 0 48.438 48.438" style="enable-background:new 0 0 48.438 48.438;"
	 xml:space="preserve">
<g>
	<g id="Layer_1_copy_13_">
		<path d="M12.737,23.227c0.033-0.174,0.006-0.285-0.195-0.314c-0.498-0.068-0.993-0.187-1.492-0.215
			c-0.977-0.055-1.919,0.117-2.741,0.678c-1.31,0.894-1.85,2.179-1.787,3.73c0.029,0.738,0.318,1.365,1.022,1.689
			c0.712,0.326,1.415,0.219,2.029-0.257c0.296-0.229,0.529-0.536,0.824-0.844c-0.02,0.308-0.031,0.601-0.058,0.892
			c-0.018,0.182,0.044,0.252,0.231,0.245c0.363-0.012,0.729-0.012,1.092,0c0.197,0.007,0.242-0.065,0.255-0.257
			c0.04-0.626,0.07-1.256,0.172-1.874C12.28,25.54,12.516,24.385,12.737,23.227z M10.034,26.898
			c-0.105,0.163-0.244,0.313-0.393,0.438c-0.245,0.211-0.534,0.301-0.852,0.174c-0.316-0.127-0.43-0.414-0.449-0.717
			c-0.065-0.978,0.274-1.803,1.025-2.435c0.399-0.336,0.874-0.445,1.442-0.287C10.605,25.044,10.591,26.044,10.034,26.898z
			 M24.187,23.188c-0.617-0.458-1.319-0.552-2.071-0.469c-2.512,0.279-3.538,2.935-3.004,4.636c0.326,1.036,1.211,1.61,2.765,1.608
			c1.07-0.031,2.128-0.637,2.792-1.88c0.354-0.663,0.481-1.384,0.437-2.133C25.059,24.231,24.774,23.624,24.187,23.188z
			 M22.624,27.192c-0.194,0.247-0.449,0.416-0.771,0.445c-0.577,0.054-1.017-0.347-1.064-0.959c-0.007-0.09-0.001-0.183-0.001-0.271
			c0.019-0.674,0.183-1.305,0.59-1.854c0.182-0.245,0.409-0.436,0.712-0.504c0.623-0.144,1.133,0.219,1.189,0.893
			C23.349,25.764,23.146,26.531,22.624,27.192z M19.205,23.281c-1.394,1.396-2.697,2.872-3.834,4.483
			c-0.709,1.002-1.371,2.041-2.004,3.094c-0.317,0.525-0.521,1.119-0.78,1.681c-0.04,0.085-0.131,0.229-0.161,0.221
			c-0.112-0.035-0.272-0.102-0.302-0.188c-0.07-0.22-0.14-0.47-0.098-0.687c0.225-1.181,0.713-2.267,1.26-3.322
			c1.062-2.051,2.391-3.921,3.943-5.624c0.884-0.969,1.801-1.909,2.745-2.817c1.42-1.366,3-2.521,4.765-3.415
			c0.812-0.412,1.66-0.721,2.56-0.889c0.149-0.028,0.299-0.064,0.446-0.097c0,0,1.851-0.355,2.658,1.031
			c0,0,0.221,0.337,0.178,0.449c-0.051,0.13-0.264,0.255-0.42,0.277c-1.479,0.22-2.914,0.605-4.291,1.173
			c-0.801,0.328-1.575,0.725-2.338,1.134C21.87,20.675,20.522,21.961,19.205,23.281z M36.61,22.828
			c-1.113-0.332-2.14-0.099-3.015,0.646c-1.062,0.904-1.461,2.101-1.311,3.465c0.107,0.964,0.635,1.655,1.598,1.903
			c1.033,0.267,2.049,0.127,3.029-0.274c0.066-0.026,0.146-0.142,0.145-0.211c-0.02-0.358-0.062-0.716-0.096-1.071
			c-0.043,0-0.061-0.004-0.074,0.001c-0.063,0.021-0.125,0.046-0.188,0.068c-0.562,0.216-1.146,0.312-1.748,0.237
			c-0.623-0.076-1.035-0.508-0.994-1.117c0.387,0,0.768,0.019,1.145-0.004c0.604-0.035,1.197-0.138,1.746-0.41
			c0.701-0.353,1.031-0.93,0.979-1.688C37.77,23.604,37.354,23.049,36.61,22.828z M35.864,24.999
			c-0.354,0.187-1.278,0.298-1.733,0.203c0.094-0.777,0.916-1.391,1.616-1.221c0.238,0.058,0.406,0.185,0.445,0.436
			C36.231,24.662,36.108,24.872,35.864,24.999z M48.438,22.706c-0.109,0.556-0.207,1.07-0.316,1.584
			c-0.01,0.042-0.086,0.096-0.137,0.103c-1.156,0.152-1.644,0.562-1.933,1.746c-0.201,0.824-0.332,1.666-0.502,2.496
			c-0.014,0.067-0.074,0.181-0.115,0.182c-0.543,0.012-1.084,0.008-1.661,0.008c0.077-0.434,0.146-0.829,0.223-1.223
			c0.304-1.521,0.619-3.04,0.744-4.589c0.004-0.063,0.092-0.172,0.144-0.174c0.442-0.014,0.891-0.008,1.373-0.008
			c-0.033,0.417-0.062,0.808-0.097,1.198C46.701,23.232,47.323,22.59,48.438,22.706z M42.434,22.822
			c-1.276-0.352-2.393-0.011-3.291,0.944c-0.838,0.889-1.146,1.977-1,3.178c0.113,0.941,0.609,1.626,1.552,1.884
			c1.049,0.286,2.078,0.146,3.073-0.263c0.068-0.027,0.146-0.143,0.144-0.213c-0.019-0.356-0.062-0.715-0.101-1.094
			c-0.122,0.047-0.215,0.082-0.307,0.113c-0.551,0.202-1.117,0.289-1.703,0.219c-0.627-0.076-1.041-0.518-0.983-1.095
			c0.174,0,0.338,0.004,0.502,0c0.795-0.018,1.586-0.065,2.321-0.407c0.732-0.342,1.086-0.925,1.039-1.697
			C43.631,23.6,43.215,23.038,42.434,22.822z M41.74,24.977c-0.215,0.096-0.449,0.166-0.684,0.197
			c-0.348,0.047-0.701,0.051-1.074,0.075c0.078-0.821,0.939-1.456,1.637-1.265c0.225,0.062,0.393,0.18,0.426,0.424
			C42.08,24.67,41.973,24.878,41.74,24.977z M31.557,23.946c0.08,0.727-0.069,1.431-0.205,2.134c-0.161,0.852-0.321,1.7-0.493,2.549
			c-0.017,0.073-0.104,0.188-0.162,0.19c-0.504,0.014-1.009,0.004-1.513,0c-0.022,0-0.045-0.018-0.092-0.04
			c0.092-0.487,0.188-0.979,0.275-1.472c0.133-0.754,0.264-1.51,0.385-2.267c0.021-0.129,0.012-0.265-0.004-0.395
			c-0.051-0.449-0.379-0.659-0.814-0.52c-0.424,0.135-0.676,0.461-0.883,0.825c-0.307,0.533-0.412,1.126-0.518,1.723
			c-0.113,0.646-0.23,1.297-0.359,1.942c-0.014,0.076-0.104,0.195-0.162,0.197c-0.52,0.016-1.037,0.009-1.61,0.009
			c0.371-2.017,0.733-3.993,1.101-5.986c0.497,0,0.975,0,1.489,0c-0.024,0.316-0.049,0.62-0.073,0.935
			c0.172-0.161,0.321-0.309,0.479-0.446c0.579-0.505,1.245-0.729,2.014-0.603C31.047,22.829,31.485,23.296,31.557,23.946z
			 M13.137,17.513c-0.027-0.154-0.041-0.311-0.054-0.466c-0.015-0.177,0.087-0.265,0.242-0.209c0.15,0.055,0.307,0.14,0.415,0.256
			c0.932,0.988,1.518,2.147,1.678,3.507c0.031,0.262,0.045,0.526,0.067,0.789c-0.017,0.818-0.162,1.61-0.442,2.377
			c-0.029,0.082-0.089,0.155-0.144,0.226c-0.13,0.171-0.27,0.186-0.367-0.001c-0.128-0.245-0.236-0.509-0.298-0.777
			c-0.189-0.828-0.363-1.66-0.522-2.494C13.509,19.653,13.326,18.583,13.137,17.513z M6.741,22.346
			c-0.113-0.791-0.778-1.462-1.736-1.698c-1.097-0.271-2.197-0.159-3.296,0.007c-0.145,0.022-0.186,0.119-0.212,0.259
			c-0.42,2.221-0.848,4.44-1.271,6.66C0.149,27.975,0.08,28.38,0,28.822c0.562,0,1.088,0.004,1.613-0.009
			c0.042-0.002,0.104-0.113,0.116-0.182c0.17-0.856,0.338-1.716,0.494-2.574c0.03-0.166,0.083-0.213,0.259-0.196
			c0.746,0.067,1.48,0.016,2.2-0.224C6.052,25.186,6.97,23.924,6.741,22.346z M4.889,23.54c-0.271,0.579-0.764,0.854-1.371,0.919
			c-0.313,0.034-0.633,0.007-0.992,0.007c0.163-0.866,0.306-1.634,0.457-2.4c0.012-0.057,0.083-0.136,0.135-0.144
			c0.427-0.057,0.856-0.089,1.272,0.06C4.976,22.188,5.198,22.884,4.889,23.54z"/>
	</g>
</g>
<g>
</g>
<g>
</g>
<g>
</g>
<g>
</g>
<g>
</g>
<g>
</g>
<g>
</g>
<g>
</g>
<g>
</g>
<g>
</g>
<g>
</g>
<g>
</g>
<g>
</g>
<g>
</g>
<g>
</g>
</svg>
