<?xml version="1.0" encoding="iso-8859-1"?>
<!-- Generator: Adobe Illustrator 19.0.0, SVG Export Plug-In . SVG Version: 6.00 Build 0)  -->
<svg version="1.1" id="Layer_1" xmlns="http://www.w3.org/2000/svg" xmlns:xlink="http://www.w3.org/1999/xlink" x="0px" y="0px"
	 viewBox="0 0 496.8 496.8" style="enable-background:new 0 0 496.8 496.8;" xml:space="preserve">
<path style="fill:#B73091;" d="M392.8,180l40-7.2V328h-40V180z M456.8,180v148h40V172.8L456.8,180z M336.8,328h40V216h-40V328z
	 M63.2,231.2c-5.6,0-17.6-0.8-17.6-12c0-12.8,17.6-12.8,24-12.8c11.2,0,26.4,3.2,36.8,6.4c0,0,7.2,2.4,12,4h1.6V216v-35.2l-1.6-0.8
	c-12.8-4-28-8.8-54.4-8.8c-46.4,1.6-63.2,28.8-63.2,52C0.8,236.8,6.4,268,60,272c4.8,0,16.8,0.8,16.8,12c0,9.6-11.2,14.4-28,14.4
	c-18.4,0-32-4.8-48-8.8v36.8c16,4,35.2,6.4,56.8,6.4c45.6,0,66.4-25.6,66.4-51.2C124,252.8,101.6,234.4,63.2,231.2z M312,213.6
	c-38.4,0.8-55.2,18.4-55.2,52V328h40v-50.4c0-20,0-28.8,24-29.6v-33.6C320.8,212.8,312,213.6,312,213.6z M200.8,216
	c-0.8,0-8,20-24,39.2v-82.4l-40,8.8V328h40v-43.2c16,18.4,19.2,43.2,19.2,43.2h51.2c-4.8-16-27.2-57.6-27.2-57.6
	c20-24.8,28.8-54.4,29.6-54.4H200.8z M356.8,204c11.2,0,20-8.8,20-20s-8.8-20-20-20s-20,8.8-20,20S345.6,204,356.8,204z"/>
<path style="fill:#862165;" d="M408.8,176.8l24-4V328h-40L408.8,176.8z M471.2,177.6L456.8,328h40V172.8L471.2,177.6z M336.8,328h40
	V216H360L336.8,328z M0.8,223.2c0,13.6,5.6,44.8,58.4,48.8c4.8,0,24,0.8,24,12c0,9.6-19.2,14.4-35.2,14.4c-18.4,0-32-4.8-48-8.8
	v36.8c16,4,35.2,6.4,56.8,6.4c45.6,0,66.4-25.6,66.4-51.2c0-28.8-22.4-47.2-60.8-50.4c-5.6,0-16.8-0.8-16.8-12
	c0-12.8,17.6-12.8,24-12.8c11.2,0,26.4,3.2,36.8,6.4c0,0,7.2,2.4,12,4h1.6V216v-35.2l-1.6-0.8c-12.8-4-28-8.8-54.4-8.8 M256.8,264
	v64h40v-50.4c0-20,0-28.8,24-29.6v-33.6c0-0.8-8.8-0.8-8.8-0.8 M136.8,328h40v-43.2c16,18.4,34.4,43.2,34.4,43.2h35.2
	c-4.8-16-27.2-57.6-27.2-57.6c20-24.8,28.8-54.4,29.6-54.4h-24c-0.8,0-32,20-48,39.2V176 M356.8,204c11.2,0,20-8.8,20-20
	s-8.8-20-20-20"/>
<g>
</g>
<g>
</g>
<g>
</g>
<g>
</g>
<g>
</g>
<g>
</g>
<g>
</g>
<g>
</g>
<g>
</g>
<g>
</g>
<g>
</g>
<g>
</g>
<g>
</g>
<g>
</g>
<g>
</g>
</svg>
