<?xml version="1.0" encoding="UTF-8"?>
<svg xmlns="http://www.w3.org/2000/svg" xmlns:xlink="http://www.w3.org/1999/xlink" viewBox="0 0 48 48" version="1.1" width="50px" height="50px">
<g id="surface1">
<path style=" fill:#FFB300;" d="M 31.199219 10.601563 L 24.601563 12.898438 L 23.199219 8.601563 C 22.601563 6.800781 23.5 4.800781 25.398438 4.199219 C 27.199219 3.601563 29.199219 4.5 29.800781 6.398438 Z M 29.199219 26.601563 L 35.800781 24.300781 L 33.5 17.199219 L 26.898438 19.5 Z M 32.601563 36.800781 C 33.101563 38.199219 34.5 39.199219 35.898438 39.199219 C 36.300781 39.199219 36.699219 39.101563 37 39 C 38.800781 38.398438 39.800781 36.398438 39.199219 34.601563 L 38 31 L 31.398438 33.300781 Z "/>
<path style=" fill:#00BFA5;" d="M 17.199219 15.5 L 10.601563 17.800781 L 9.199219 13.601563 C 8.601563 11.800781 9.5 9.800781 11.398438 9.199219 C 13.199219 8.601563 15.199219 9.5 15.800781 11.398438 Z M 18.601563 41.800781 C 19.101563 43.199219 20.5 44.199219 21.898438 44.199219 C 22.300781 44.199219 22.699219 44.101563 23 44 C 24.800781 43.398438 25.800781 41.398438 25.199219 39.601563 L 24 35.898438 L 17.398438 38.199219 Z M 19.398438 22.199219 L 12.800781 24.5 L 15.101563 31.601563 L 21.699219 29.300781 Z "/>
<path style=" fill:#00BCD4;" d="M 33.398438 17.300781 L 31.199219 10.699219 L 35.300781 9.300781 C 37.101563 8.699219 39.101563 9.601563 39.699219 11.5 C 40.300781 13.300781 39.398438 15.300781 37.5 15.898438 Z M 26.800781 19.601563 L 24.601563 13 L 17.199219 15.601563 L 19.398438 22.199219 Z M 6.398438 19.300781 C 4.601563 19.898438 3.601563 21.898438 4.199219 23.699219 C 4.699219 25.199219 6.101563 26.101563 7.5 26.101563 C 7.898438 26.101563 8.300781 26 8.601563 25.898438 L 12.699219 24.5 L 10.5 17.898438 Z "/>
<path style=" fill:#E91E63;" d="M 15.101563 31.5 L 17.300781 38.101563 L 12.601563 39.699219 C 12.199219 39.800781 11.800781 39.898438 11.5 39.898438 C 10 39.898438 8.699219 39 8.199219 37.5 C 7.601563 35.699219 8.5 33.699219 10.398438 33.101563 Z M 43.699219 25.300781 C 43.101563 23.5 41.101563 22.5 39.300781 23.101563 L 35.800781 24.300781 L 38 31 L 41.601563 29.800781 C 43.398438 29.101563 44.398438 27.101563 43.699219 25.300781 Z M 21.699219 29.199219 L 23.898438 35.800781 L 31.300781 33.199219 L 29.101563 26.601563 Z "/>
<path style=" fill:#388E3C;" d="M 33.398438 17.300781 L 31.199219 10.601563 L 24.601563 12.898438 L 26.800781 19.601563 Z "/>
<path style=" fill:#00897B;" d="M 17.199219 15.5 L 10.601563 17.800781 L 12.800781 24.5 L 19.398438 22.199219 Z "/>
<path style=" fill:#BF360C;" d="M 29.199219 26.601563 L 31.398438 33.300781 L 38 31 L 35.800781 24.300781 Z "/>
<path style=" fill:#4E342E;" d="M 15.101563 31.5 L 17.300781 38.199219 L 23.898438 35.898438 L 21.699219 29.199219 Z "/>
</g>
</svg>
